<svg width="16" height="16" viewBox="0 0 16 16" fill="none" xmlns="http://www.w3.org/2000/svg">
<g clip-path="url(#clip0_1161_7344)">
<path d="M8.63098 5.34376L6.03824 2.75102C5.08361 1.79641 3.56778 1.76453 2.65248 2.67982C1.73718 3.59509 1.76906 5.11096 2.72368 6.06559L5.31641 8.65829" stroke="white" stroke-width="1.5" stroke-linecap="round" stroke-linejoin="round"/>
<path d="M10.6388 7.35693L13.2315 9.94967C14.1861 10.9043 14.3098 12.3744 13.3027 13.3354C12.2957 14.2964 10.8716 14.2188 9.91695 13.2642L7.32422 10.6715" stroke="white" stroke-width="1.5" stroke-linecap="round" stroke-linejoin="round"/>
<path d="M7.07957 7.02537L5.7832 5.729" stroke="white" stroke-width="1.5" stroke-linecap="round" stroke-linejoin="round"/>
<path d="M10.1045 10.0502L8.80811 8.75391" stroke="white" stroke-width="1.5" stroke-linecap="round" stroke-linejoin="round"/>
<path fill-rule="evenodd" clip-rule="evenodd" d="M10.0001 1.42847C10.3157 1.42847 10.5716 1.6843 10.5716 1.9999V3.9999C10.5716 4.31549 10.3157 4.57132 10.0001 4.57132C9.68455 4.57132 9.42871 4.31549 9.42871 3.9999V1.9999C9.42871 1.6843 9.68455 1.42847 10.0001 1.42847Z" fill="white"/>
<path fill-rule="evenodd" clip-rule="evenodd" d="M6.00014 11.4287C6.31573 11.4287 6.57157 11.6845 6.57157 12.0001V14.0001C6.57157 14.3157 6.31573 14.5716 6.00014 14.5716C5.68455 14.5716 5.42871 14.3157 5.42871 14.0001V12.0001C5.42871 11.6845 5.68455 11.4287 6.00014 11.4287Z" fill="white"/>
<path fill-rule="evenodd" clip-rule="evenodd" d="M14.5713 6.00014C14.5713 6.31573 14.3155 6.57157 13.9999 6.57157L11.9999 6.57157C11.6843 6.57157 11.4284 6.31573 11.4284 6.00014C11.4284 5.68455 11.6843 5.42871 11.9999 5.42871L13.9999 5.42871C14.3155 5.42871 14.5713 5.68455 14.5713 6.00014Z" fill="white"/>
<path fill-rule="evenodd" clip-rule="evenodd" d="M4.57129 10.0001C4.57129 10.3157 4.31545 10.5716 3.99986 10.5716H1.99986C1.68427 10.5716 1.42843 10.3157 1.42843 10.0001C1.42843 9.68455 1.68427 9.42871 1.99986 9.42871H3.99986C4.31545 9.42871 4.57129 9.68455 4.57129 10.0001Z" fill="white"/>
</g>
<defs>
<clipPath id="clip0_1161_7344">
<rect width="16" height="16" fill="white"/>
</clipPath>
</defs>
</svg>
